<?xml version="1.0" encoding="UTF-8" standalone="no"?>
<svg width="64px" height="63px" viewBox="0 0 64 63" version="1.1" xmlns="http://www.w3.org/2000/svg" xmlns:xlink="http://www.w3.org/1999/xlink" xmlns:sketch="http://www.bohemiancoding.com/sketch/ns">
    <!-- Generator: Sketch 3.2.2 (9983) - http://www.bohemiancoding.com/sketch -->
    <title>Shape</title>
    <desc>Created with Sketch.</desc>
    <defs></defs>
    <g id="Page-1" stroke="none" stroke-width="1" fill="none" fill-rule="evenodd" sketch:type="MSPage">
        <path d="M31.9021407,0 C14.2874618,0 0,14.4563826 0,32.2793199 C0,46.5376699 9.19877676,58.6176608 21.7247706,62.9743788 C23.2905199,63.1724114 23.8776758,62.1822482 23.8776758,61.3901177 L23.8776758,55.8452038 C15.0703364,57.8255302 13.1131498,51.4884858 13.1131498,51.4884858 C11.7431193,47.7258657 9.59021407,46.7357025 9.59021407,46.7357025 C6.65443425,44.7553761 9.78593272,44.7553761 9.78593272,44.7553761 C12.9174312,44.9534088 14.6788991,48.121931 14.6788991,48.121931 C17.6146789,53.0727469 22.116208,51.6865184 23.8776758,50.8943879 C24.0733945,48.7160289 25.0519878,47.3298004 25.8348624,46.5376699 C18.7889908,45.7455393 11.351682,42.9730824 11.351682,30.4970262 C11.351682,26.9324387 12.5259939,24.1599818 14.6788991,21.7835901 C14.2874618,20.9914596 13.3088685,17.6249048 15.0703364,13.2681867 C15.0703364,13.2681867 17.8103976,12.4760562 23.8776758,16.6347416 C26.4220183,15.842611 29.1620795,15.6445784 31.9021407,15.6445784 C34.6422018,15.6445784 37.382263,16.0406437 39.9266055,16.6347416 C45.9938838,12.4760562 48.733945,13.2681867 48.733945,13.2681867 C50.4954128,17.6249048 49.3211009,20.9914596 49.1253823,21.7835901 C51.0825688,23.9619492 52.4525994,26.9324387 52.4525994,30.4970262 C52.4525994,42.9730824 45.0152905,45.5475067 37.969419,46.3396372 C39.1437309,47.3298004 40.1223242,49.3101268 40.1223242,52.2806163 L40.1223242,61.192085 C40.1223242,61.9842156 40.7094801,62.9743788 42.2752294,62.7763461 C54.9969419,58.4196281 64,46.3396372 64,32.0812873 C63.8042813,14.4563826 49.5168196,0 31.9021407,0 L31.9021407,0 Z" id="Shape" fill="#191717" sketch:type="MSShapeGroup"></path>
    </g>
</svg>